<svg width="66" height="60" viewBox="0 0 66 60" fill="none" xmlns="http://www.w3.org/2000/svg">
<path d="M31.6635 26.7849L27.8143 20.0238L2.66577 1.19522C2.66577 1.19522 1.46822 0.168204 0.783908 1.62314C0.0995949 3.07807 1.2116 4.19066 1.98145 4.96092C2.7513 5.73118 25.8469 27.1273 25.8469 27.1273L30.5515 28.4966L31.6635 26.7849Z" fill="#797979"/>
<path d="M2.66577 1.19522C2.66577 1.19522 1.46822 0.168204 0.783908 1.62314C0.099595 3.07807 1.2116 4.19066 1.98145 4.96092C2.06699 5.04651 2.7513 5.64559 3.69223 6.58702L5.23194 3.16365L2.66577 1.19522Z" fill="#E0B500"/>
<path d="M38.4201 35.6857C39.6176 35.3434 40.302 34.0596 40.302 32.1767C40.302 28.9245 37.9924 24.9021 35.1696 23.276C33.7154 22.4201 32.4323 22.4201 31.4914 22.9336C31.4914 22.9336 26.8723 26.8705 22.9375 36.1992C22.9375 36.1992 33.4588 37.2262 38.4201 35.6857Z" fill="url(#paint0_linear_50_3542)"/>
<path d="M65.1946 59.2214L37.5654 37.0551V34.5731L38.763 32.7758L45.6916 36.5415L65.109 57.1674C65.109 57.1674 65.7933 57.9376 65.7078 58.7935C65.7078 59.6493 65.1946 59.2214 65.1946 59.2214Z" fill="#797979"/>
<path d="M63.5703 55.3701L63.1426 57.5097L65.2811 59.2214C65.2811 59.2214 65.7943 59.5637 65.8798 58.7935C65.9654 57.9376 65.2811 57.1674 65.2811 57.1674L63.5703 55.3701Z" fill="#E0B500"/>
<defs>
<linearGradient id="paint0_linear_50_3542" x1="27.4198" y1="27.4807" x2="34.9749" y2="36.1713" gradientUnits="userSpaceOnUse">
<stop stop-color="#D3DADE"/>
<stop offset="0.079658" stop-color="#DCE4E8"/>
<stop offset="0.2915" stop-color="#676767"/>
<stop offset="1" stop-color="#999EA1"/>
</linearGradient>
</defs>
</svg>
