<svg width="142" height="142" viewBox="0 0 142 142" fill="none" xmlns="http://www.w3.org/2000/svg">
<g clip-path="url(#clip0_135_2997)">
<path d="M68.7786 0.15487L70.2899 70.4033L81.9685 45.3134L72.0366 0.160472L68.7786 0.15487Z" fill="#D0D2D3"/>
<path opacity="0.3" d="M68.7786 0.15489L70.2899 70.4033L73.4183 63.6832L72.0366 0.160492L68.7786 0.15489Z" fill="white"/>
<path d="M72.0365 0.160471L68.7785 0.154869L68.8525 3.59378L72.8681 3.60052L72.0365 0.160471Z" fill="#FFD420"/>
<path d="M73.5494 7.04146L68.926 7.03358L68.9999 10.4724L74.306 10.4813L73.5494 7.04146Z" fill="#FFD420"/>
<path d="M127.397 112.888L70.9526 71.0417L83.6263 95.644L125.397 115.459L127.397 112.888Z" fill="#D0D2D3"/>
<path opacity="0.3" d="M127.397 112.888L70.9526 71.0417L74.3469 77.6315L125.397 115.459L127.397 112.888Z" fill="white"/>
<path d="M125.397 115.459L127.398 112.888L124.634 110.84L122.169 114.009L125.397 115.459Z" fill="#FFD420"/>
<path d="M119.032 112.439L121.871 108.79L119.108 106.742L115.85 110.93L119.032 112.439Z" fill="#FFD420"/>
<path d="M15.8736 115.217L70.5278 71.0575L43.5348 77.1626L13.8854 112.636L15.8736 115.217Z" fill="#D0D2D3"/>
<path opacity="0.3" d="M15.8735 115.217L70.5277 71.0575L63.2977 72.6924L13.8854 112.636L15.8735 115.217Z" fill="white"/>
<path d="M13.8855 112.636L15.8737 115.217L18.5491 113.055L16.0986 109.874L13.8855 112.636Z" fill="#FFD420"/>
<path d="M18.4042 107.23L21.2255 110.893L23.9011 108.731L20.6629 104.528L18.4042 107.23Z" fill="#FFD420"/>
</g>
<defs>
<clipPath id="clip0_135_2997">
<rect width="142" height="142" fill="white"/>
</clipPath>
</defs>
</svg>
