<svg width="876" height="848" viewBox="0 0 876 848" fill="none" xmlns="http://www.w3.org/2000/svg">
<g opacity="0.6">
<path opacity="0.5" d="M159.107 349.262L159.041 349.38L187.769 399.14L187.842 399.265L245.148 399.265L273.738 448.774L273.811 448.893L331.406 448.893L360.055 399.265L417.086 399.265L445.604 448.649L417.086 498.041L359.773 498.041L331.045 547.794L330.979 547.919L359.635 597.546L331.117 646.938L274.087 646.938L245.503 597.422L245.437 597.304L187.842 597.304L159.192 646.938L101.879 646.938L73.1441 696.691L73.0787 696.809L101.801 746.568L101.879 746.693L159.468 746.693L188.125 697.052L245.148 697.052L273.666 746.45L245.075 795.96L245.01 796.082L273.738 845.834L273.811 845.956L331.406 845.956L360.121 796.203L360.193 796.082L331.544 746.45L360.055 697.052L417.368 697.052L446.09 647.299L446.162 647.188L417.506 597.546L446.018 548.161L503.054 548.161L531.566 597.546L502.982 647.063L502.91 647.188L531.638 696.934L531.704 697.052L589.299 697.052L618.021 647.299L618.093 647.188L589.444 597.546L617.955 548.161L675.268 548.161L703.925 498.527L760.954 498.527L789.538 548.037L789.604 548.161L847.199 548.161L875.928 498.402L876 498.284L847.271 448.531L847.199 448.413L789.893 448.413L761.303 398.897L761.237 398.778L703.636 398.778L674.985 448.413L617.673 448.413L589.01 498.041L531.987 498.041L503.474 448.649L531.987 399.265L589.299 399.265L618.021 349.512L618.093 349.38L589.444 299.752L617.955 250.367L674.985 250.367L703.57 299.877L703.636 300.002L761.231 300.002L789.887 250.367L847.199 250.367L875.928 200.614L875.993 200.49L847.271 150.73L847.199 150.612L789.604 150.612L760.948 200.246L703.925 200.246L675.406 150.855L703.99 101.346L704.063 101.221L675.341 51.468L675.268 51.3497L617.673 51.3497L588.945 101.096L588.872 101.22L617.529 150.855L589.01 200.246L531.704 200.246L502.982 249.999L502.91 250.124L531.566 299.752L503.054 349.144L446.018 349.144L417.506 299.752L446.09 250.242L446.163 250.118L417.434 200.365L417.368 200.246L359.773 200.246L331.045 249.999L330.979 250.118L359.635 299.752L331.117 349.144L274.087 349.144L245.503 299.627L245.437 299.509L187.842 299.509L159.107 349.262ZM159.192 746.201L102.155 746.201L73.6438 696.809L102.155 647.424L159.192 647.424L178.193 680.35L187.704 696.809L159.192 746.201ZM188.125 696.566L169.117 663.647L159.613 647.188L188.125 597.789L245.148 597.789L273.666 647.188L254.658 680.107L245.148 696.566L188.125 696.566ZM359.635 796.082L331.117 845.466L274.087 845.466L245.581 796.082L274.087 746.693L331.117 746.693L359.635 796.082ZM331.117 746.201L274.087 746.201L245.581 696.809L264.589 663.884L274.087 647.424L331.117 647.424L350.131 680.35L359.635 696.809L331.117 746.201ZM445.604 647.188L417.085 696.566L360.055 696.566L341.048 663.647L331.544 647.188L360.055 597.789L417.086 597.789L445.604 647.188ZM417.086 597.304L360.055 597.304L331.544 547.919L360.055 498.527L417.086 498.527L436.094 531.453L445.604 547.919L417.086 597.304ZM617.529 647.188L589.01 696.566L531.987 696.566L503.474 647.188L531.987 597.789L589.01 597.789L617.529 647.188ZM846.917 448.893L875.435 498.284L846.917 547.669L789.893 547.669L761.375 498.284L780.383 465.358L789.893 448.893L846.917 448.893ZM703.925 399.265L760.954 399.265L789.466 448.649L770.458 481.575L760.954 498.041L703.925 498.041L684.91 465.109L675.406 448.649L703.925 399.265ZM617.955 448.893L674.985 448.893L693.994 481.825L703.498 498.284L674.985 547.669L617.955 547.669L598.941 514.744L589.444 498.284L617.955 448.893ZM589.01 498.527L608.025 531.453L617.529 547.919L589.01 597.304L531.987 597.304L503.475 547.919L522.489 514.993L531.987 498.527L589.01 498.527ZM531.566 498.284L512.552 531.203L503.054 547.669L446.018 547.669L427.01 514.744L417.506 498.284L446.018 448.893L503.054 448.893L531.566 498.284ZM789.887 151.098L846.917 151.098L875.429 200.49L846.917 249.881L789.887 249.881L770.879 216.949L761.375 200.49L789.887 151.098ZM760.948 200.733L779.956 233.658L789.466 250.125L760.948 299.509L703.925 299.509L675.406 250.125L694.421 217.192L703.925 200.733L760.948 200.733ZM589.444 101.221L617.955 51.8354L674.985 51.8354L703.498 101.221L674.985 150.612L617.955 150.612L589.444 101.221ZM617.955 151.098L674.985 151.098L703.498 200.49L684.49 233.415L674.986 249.881L617.955 249.881L598.941 216.949L589.444 200.49L617.955 151.098ZM503.475 250.125L531.987 200.733L589.01 200.733L608.025 233.658L617.529 250.125L589.01 299.509L531.987 299.509L503.475 250.125ZM531.987 300.002L589.01 300.002L617.529 349.38L589.01 398.778L531.987 398.778L512.979 365.853L503.475 349.38L531.987 300.002ZM503.054 349.637L522.062 382.555L531.566 399.015L503.054 448.413L446.018 448.413L417.506 399.015L436.521 366.096L446.018 349.637L503.054 349.637ZM331.544 250.118L360.055 200.733L417.086 200.733L445.604 250.118L417.086 299.509L360.055 299.509L331.544 250.118ZM360.055 300.002L417.086 300.002L445.604 349.38L426.59 382.313L417.086 398.778L360.055 398.778L341.048 365.853L331.544 349.38L360.055 300.002ZM331.117 349.637L350.131 382.555L359.635 399.015L331.117 448.413L274.087 448.413L245.581 399.015L264.589 366.096L274.087 349.637L331.117 349.637ZM245.148 300.002L273.666 349.38L254.658 382.313L245.148 398.778L188.125 398.778L159.613 349.38L188.125 300.002L245.148 300.002Z" fill="#071221"/>
<path opacity="0.5" d="M-557.272 399.113L-557.199 399.238L-499.886 399.238L-471.302 448.748L-471.237 448.872L-413.635 448.872L-384.985 399.238L-327.673 399.238L-299.017 349.604L-241.986 349.604L-213.475 398.988L-241.986 448.38L-299.299 448.38L-328.021 498.133L-328.094 498.257L-299.444 547.892L-327.949 597.277L-384.985 597.277L-413.569 547.774L-413.635 547.643L-471.23 547.643L-499.887 597.277L-557.199 597.277L-585.928 647.03L-585.994 647.155L-557.272 696.907L-557.199 697.032L-499.604 697.032L-470.948 647.398L-413.918 647.398L-385.406 696.789L-413.99 746.299L-414.062 746.417L-385.34 796.176L-385.268 796.295L-327.673 796.295L-298.945 746.542L-298.872 746.417L-327.535 696.789L-299.017 647.398L-241.704 647.398L-212.982 597.645L-212.91 597.52L-241.566 547.892L-213.055 498.5L-156.018 498.5L-127.512 547.892L-156.09 597.402L-156.162 597.527L-127.434 647.28L-127.368 647.398L-69.7731 647.398L-41.0445 597.645L-40.9786 597.527L-69.6347 547.892L-41.1232 498.5L15.9137 498.5L44.4978 548.011L44.5631 548.135L102.158 548.135L130.887 498.376L130.96 498.257L102.231 448.505L102.158 448.38L44.8524 448.38L16.2616 398.87L16.1896 398.745L-41.4056 398.745L-70.055 448.38L-127.085 448.38L-155.597 398.988L-127.085 349.604L-69.7732 349.604L-41.0446 299.851L-40.9787 299.726L-69.6347 250.091L-41.1232 200.706L15.9137 200.706L44.4978 250.216L44.5631 250.341L102.158 250.341L130.815 200.706L188.128 200.706L216.856 150.953L216.921 150.829L188.2 101.07L188.128 100.951L130.526 100.951L101.876 150.586L44.8522 150.586L16.3341 101.194L44.9181 51.6846L44.9901 51.5594L16.2614 1.80701L16.1895 1.68858L-41.4057 1.68857L-70.1277 51.4349L-70.1936 51.5594L-41.5437 101.194L-70.0551 150.586L-127.368 150.586L-156.09 200.338L-156.162 200.457L-127.512 250.091L-156.018 299.483L-213.055 299.483L-241.566 250.091L-212.982 200.581L-212.91 200.457L-241.639 150.704L-241.704 150.586L-299.299 150.586L-328.021 200.338L-328.094 200.457L-299.444 250.091L-327.949 299.483L-385.268 299.483L-413.918 349.117L-470.955 349.117L-499.532 299.608L-499.604 299.483L-557.199 299.483L-585.928 349.242L-586 349.36L-557.272 399.113ZM-499.886 696.54L-556.917 696.54L-585.429 647.155L-556.917 597.763L-499.886 597.763L-480.879 630.688L-471.375 647.155L-499.886 696.54ZM-470.948 646.905L-489.956 613.986L-499.466 597.52L-470.948 548.135L-413.918 548.135L-385.406 597.52L-404.42 630.446L-413.918 646.905L-470.948 646.905ZM-299.444 746.417L-327.949 795.805L-384.985 795.805L-413.497 746.417L-384.985 697.032L-327.949 697.032L-299.444 746.417ZM-327.949 696.54L-384.985 696.54L-413.497 647.155L-394.483 614.229L-384.985 597.763L-327.949 597.763L-308.941 630.688L-299.444 647.155L-327.949 696.54ZM-213.475 597.52L-241.986 646.905L-299.017 646.905L-318.025 613.986L-327.535 597.52L-299.017 548.135L-241.986 548.135L-213.475 597.52ZM-241.986 547.643L-299.017 547.643L-327.535 498.257L-299.017 448.872L-241.986 448.872L-222.978 481.792L-213.475 498.257L-241.986 547.643ZM-41.5436 597.527L-70.055 646.905L-127.085 646.905L-155.597 597.527L-127.085 548.135L-70.055 548.135L-41.5436 597.527ZM101.882 448.872L130.394 498.257L101.882 547.643L44.8522 547.643L16.334 498.257L35.3421 465.332L44.8521 448.872L101.882 448.872ZM-41.1233 399.232L15.9137 399.232L44.4251 448.623L25.4109 481.548L15.9136 498.008L-41.1233 498.008L-60.1313 465.089L-69.6347 448.623L-41.1233 399.232ZM-70.055 448.872L-51.0477 481.792L-41.5437 498.257L-70.0551 547.643L-127.085 547.643L-155.597 498.257L-136.589 465.332L-127.085 448.872L-70.055 448.872ZM-127.512 448.623L-146.52 481.548L-156.018 498.008L-213.055 498.008L-232.062 465.089L-241.566 448.623L-213.055 399.232L-156.018 399.232L-127.512 448.623ZM130.815 101.437L187.845 101.437L216.356 150.829L187.845 200.22L130.815 200.22L111.807 167.295L102.296 150.829L130.815 101.437ZM101.876 151.078L120.884 183.997L130.388 200.457L101.876 249.848L44.8522 249.848L16.334 200.457L35.3421 167.538L44.8521 151.078L101.876 151.078ZM-69.6346 51.5594L-41.1232 2.17423L15.9137 2.17424L44.4251 51.5594L15.9137 100.951L-41.1232 100.951L-69.6346 51.5594ZM-41.1232 101.437L15.9137 101.437L44.4251 150.829L25.4109 183.754L15.9137 200.22L-41.1233 200.22L-60.1313 167.295L-69.6347 150.829L-41.1232 101.437ZM-155.597 200.457L-127.085 151.078L-70.055 151.078L-51.0477 183.997L-41.5437 200.457L-70.0551 249.848L-127.085 249.848L-155.597 200.457ZM-127.085 250.341L-70.055 250.341L-41.5436 299.726L-70.055 349.117L-127.085 349.117L-146.093 316.185L-155.597 299.726L-127.085 250.341ZM-156.018 299.976L-137.01 332.894L-127.512 349.36L-156.018 398.745L-213.055 398.745L-241.566 349.36L-222.552 316.435L-213.055 299.976L-156.018 299.976ZM-327.535 200.457L-299.017 151.078L-241.986 151.078L-213.475 200.457L-241.986 249.848L-299.017 249.848L-327.535 200.457ZM-299.017 250.341L-241.986 250.341L-213.475 299.726L-232.489 332.652L-241.986 349.117L-299.017 349.117L-318.025 316.192L-327.535 299.726L-299.017 250.341ZM-384.985 299.976L-327.949 299.976L-308.941 332.901L-299.444 349.36L-327.949 398.745L-384.985 398.745L-403.993 365.82L-413.497 349.36L-384.985 299.976ZM-413.918 349.604L-394.91 382.529L-385.406 398.988L-413.918 448.38L-470.955 448.38L-499.466 398.988L-480.452 366.069L-470.955 349.604L-413.918 349.604ZM-556.923 299.976L-499.886 299.976L-471.375 349.36L-490.389 382.286L-499.886 398.745L-556.923 398.745L-585.429 349.36L-556.923 299.976Z" fill="#071221"/>
<path d="M-557.065 400.945C-556.804 400.946 -556.545 400.895 -556.304 400.794L-528.626 448.747L-528.553 448.872L-471.241 448.872L-443.61 496.727C-443.851 496.903 -444.047 497.134 -444.184 497.399C-444.321 497.665 -444.394 497.958 -444.397 498.257C-444.398 498.514 -444.347 498.768 -444.249 499.005C-444.151 499.243 -444.006 499.458 -443.825 499.64C-443.643 499.821 -443.427 499.964 -443.189 500.062C-442.952 500.16 -442.697 500.209 -442.44 500.208C-441.969 500.206 -441.514 500.031 -441.163 499.716C-440.812 499.401 -440.589 498.968 -440.535 498.5L-384.99 498.5L-356.334 448.872L-301.07 448.872C-301.011 449.364 -300.765 449.815 -300.383 450.132C-300.001 450.449 -299.513 450.607 -299.018 450.576C-298.523 450.544 -298.059 450.323 -297.721 449.96C-297.383 449.597 -297.197 449.118 -297.202 448.622C-297.204 448.324 -297.278 448.03 -297.416 447.765C-297.554 447.5 -297.753 447.272 -297.997 447.099L-270.365 399.238L-213.341 399.231L-184.823 448.622L-212.435 496.451C-212.711 496.335 -213.011 496.284 -213.31 496.304C-213.61 496.323 -213.9 496.412 -214.16 496.563C-214.419 496.714 -214.639 496.923 -214.804 497.173C-214.969 497.424 -215.073 497.71 -215.108 498.007L-270.647 498.007L-298.403 546.085C-298.639 545.988 -298.891 545.937 -299.146 545.934C-299.665 545.932 -300.163 546.135 -300.532 546.499C-300.901 546.864 -301.11 547.36 -301.114 547.879C-301.117 548.397 -300.915 548.896 -300.551 549.265C-300.187 549.635 -299.691 549.845 -299.172 549.849C-298.908 549.848 -298.647 549.794 -298.403 549.691L-270.791 597.52L-298.403 645.355C-298.679 645.235 -298.978 645.183 -299.278 645.2C-299.578 645.218 -299.869 645.306 -300.128 645.457C-300.387 645.607 -300.608 645.817 -300.771 646.068C-300.935 646.32 -301.037 646.606 -301.07 646.905L-356.334 646.905L-384.918 597.401L-384.99 597.277L-442.578 597.277L-470.335 645.355C-470.569 645.252 -470.821 645.198 -471.077 645.197C-471.551 645.197 -472.009 645.371 -472.363 645.685C-472.718 646 -472.945 646.434 -473.002 646.905L-528.547 646.905L-557.276 696.664L-557.348 696.789L-529.572 744.886C-529.812 745.06 -530.009 745.288 -530.146 745.551C-530.283 745.815 -530.356 746.107 -530.36 746.404C-530.368 746.901 -530.185 747.382 -529.848 747.748C-529.512 748.114 -529.047 748.336 -528.551 748.369C-528.055 748.402 -527.565 748.243 -527.183 747.925C-526.801 747.607 -526.556 747.154 -526.498 746.66L-470.952 746.66L-442.296 697.032L-387.039 697.032C-386.983 697.499 -386.76 697.929 -386.411 698.245C-386.062 698.56 -385.611 698.738 -385.141 698.746C-384.875 698.745 -384.612 698.691 -384.366 698.588L-356.754 746.417L-385.345 795.93L-385.41 796.054L-357.64 844.152C-357.881 844.326 -358.077 844.554 -358.214 844.817C-358.351 845.081 -358.425 845.373 -358.429 845.669C-358.437 846.167 -358.253 846.649 -357.916 847.015C-357.579 847.381 -357.114 847.604 -356.618 847.637C-356.121 847.67 -355.631 847.512 -355.248 847.194C-354.865 846.876 -354.619 846.423 -354.56 845.929L-299.021 845.929L-270.292 796.176L-270.22 796.054L-297.997 747.947C-297.751 747.775 -297.551 747.545 -297.412 747.279C-297.274 747.013 -297.202 746.717 -297.202 746.417C-297.202 746.117 -297.274 745.821 -297.412 745.554C-297.551 745.288 -297.751 745.059 -297.997 744.886L-270.365 697.032L-215.108 697.032C-215.05 697.525 -214.805 697.977 -214.424 698.295C-214.043 698.613 -213.554 698.773 -213.059 698.742C-212.563 698.711 -212.098 698.491 -211.76 698.128C-211.422 697.765 -211.235 697.285 -211.24 696.789C-211.242 696.489 -211.316 696.194 -211.454 695.929C-211.592 695.663 -211.79 695.433 -212.034 695.258L-184.33 647.279L-184.258 647.154L-212.034 599.05C-211.789 598.877 -211.588 598.648 -211.45 598.382C-211.312 598.115 -211.24 597.82 -211.24 597.52C-211.24 597.22 -211.312 596.924 -211.45 596.658C-211.588 596.391 -211.789 596.162 -212.034 595.989L-184.396 548.134L-127.372 548.134L-99.7404 595.99C-99.9842 596.163 -100.183 596.393 -100.32 596.659C-100.457 596.925 -100.529 597.22 -100.529 597.52C-100.529 597.819 -100.457 598.114 -100.32 598.38C-100.183 598.646 -99.9842 598.876 -99.7404 599.05L-127.438 647.036L-127.517 647.161L-99.7404 695.258C-99.9828 695.432 -100.181 695.661 -100.318 695.926C-100.455 696.19 -100.527 696.484 -100.529 696.782C-100.529 697.04 -100.479 697.295 -100.381 697.533C-100.283 697.771 -100.139 697.987 -99.9571 698.17C-99.7753 698.352 -99.5594 698.497 -99.3216 698.596C-99.0839 698.695 -98.8289 698.746 -98.5714 698.746C-98.0996 698.742 -97.6456 698.565 -97.2948 698.249C-96.9441 697.934 -96.7207 697.501 -96.6668 697.032L-41.1276 697.032L-13.3648 648.96C-13.1259 649.061 -12.8689 649.113 -12.6095 649.111C-12.0904 649.111 -11.5926 648.905 -11.2255 648.538C-10.8585 648.171 -10.6522 647.673 -10.6522 647.154C-10.6522 646.635 -10.8585 646.137 -11.2255 645.77C-11.5926 645.403 -12.0904 645.197 -12.6095 645.197C-12.8693 645.198 -13.1263 645.251 -13.3648 645.355L-40.9831 597.52L-12.4709 548.134L44.5586 548.134L72.197 595.99C71.9542 596.165 71.7558 596.394 71.6179 596.66C71.48 596.926 71.4063 597.22 71.4028 597.52C71.4048 597.823 71.4769 598.122 71.6135 598.393C71.7501 598.664 71.9475 598.9 72.1903 599.083L45.4585 645.381C45.2196 645.28 44.9626 645.228 44.7032 645.23C44.4461 645.229 44.1914 645.279 43.9537 645.377C43.7159 645.475 43.4998 645.619 43.3177 645.8C43.1357 645.982 42.9912 646.197 42.8926 646.435C42.794 646.672 42.7433 646.927 42.7433 647.184C42.7433 647.441 42.794 647.696 42.8926 647.933C42.9912 648.17 43.1357 648.386 43.3177 648.568C43.4998 648.749 43.7159 648.893 43.9537 648.991C44.1914 649.089 44.4461 649.139 44.7032 649.138C44.9623 649.136 45.2187 649.085 45.4585 648.987L73.1427 696.933L73.2152 697.051L130.81 697.051L158.567 648.987C158.809 649.085 159.067 649.136 159.329 649.138C159.8 649.132 160.254 648.955 160.604 648.64C160.955 648.324 161.178 647.892 161.233 647.423L216.49 647.423L244.122 695.278C243.88 695.453 243.683 695.683 243.547 695.949C243.411 696.215 243.34 696.51 243.34 696.809C243.34 697.107 243.411 697.402 243.547 697.668C243.683 697.934 243.88 698.164 244.122 698.339L216.425 746.325L216.352 746.45L245.074 796.199L245.147 796.324L300.693 796.324C300.747 796.792 300.971 797.224 301.322 797.538C301.673 797.853 302.126 798.028 302.597 798.032C302.854 798.032 303.109 797.982 303.346 797.884C303.584 797.786 303.799 797.642 303.981 797.461C304.163 797.279 304.307 797.064 304.406 796.826C304.504 796.589 304.554 796.335 304.554 796.078C304.552 795.779 304.48 795.485 304.343 795.22C304.206 794.954 304.008 794.725 303.766 794.55L331.477 746.568L331.542 746.45L302.886 696.809L330.498 648.98C330.741 649.083 331.002 649.137 331.267 649.138C331.738 649.132 332.192 648.955 332.542 648.64C332.893 648.324 333.116 647.892 333.171 647.424L388.711 647.424L417.432 597.671L417.504 597.546L389.735 549.448C389.981 549.275 390.181 549.045 390.319 548.778C390.458 548.511 390.53 548.215 390.53 547.914C390.53 547.614 390.458 547.318 390.319 547.051C390.181 546.784 389.981 546.554 389.735 546.381L417.367 498.527L472.63 498.527C472.664 498.824 472.766 499.109 472.929 499.36C473.093 499.611 473.312 499.82 473.57 499.971C473.828 500.122 474.118 500.211 474.417 500.23C474.715 500.25 475.014 500.199 475.29 500.083L502.909 547.918L475.29 595.74C475.05 595.642 474.794 595.591 474.535 595.589C474.277 595.588 474.022 595.638 473.784 595.736C473.546 595.834 473.329 595.978 473.147 596.16C472.964 596.342 472.82 596.558 472.721 596.796C472.622 597.033 472.572 597.288 472.572 597.546C472.572 597.803 472.622 598.058 472.721 598.296C472.82 598.534 472.964 598.75 473.147 598.932C473.329 599.114 473.546 599.258 473.784 599.356C474.022 599.454 474.277 599.504 474.535 599.503C474.794 599.504 475.051 599.453 475.29 599.352L502.981 647.299L503.053 647.417L558.586 647.417C558.642 647.911 558.886 648.364 559.267 648.684C559.647 649.003 560.136 649.164 560.632 649.134C561.128 649.104 561.594 648.884 561.933 648.521C562.272 648.157 562.459 647.678 562.454 647.18C562.452 646.881 562.38 646.587 562.243 646.321C562.106 646.056 561.908 645.826 561.666 645.65L589.37 597.671L589.442 597.546L560.78 547.918L588.398 500.083C588.674 500.199 588.973 500.25 589.272 500.23C589.571 500.211 589.861 500.122 590.12 499.971C590.379 499.82 590.599 499.611 590.763 499.36C590.927 499.11 591.03 498.824 591.065 498.527L646.604 498.527L674.36 450.455C674.601 450.555 674.86 450.607 675.122 450.606C675.595 450.602 676.05 450.426 676.401 450.11C676.753 449.795 676.978 449.361 677.033 448.892L732.297 448.892L759.929 496.753C759.685 496.928 759.486 497.157 759.348 497.423C759.21 497.689 759.136 497.984 759.134 498.283C759.134 498.54 759.185 498.794 759.283 499.031C759.382 499.268 759.526 499.484 759.708 499.665C759.89 499.846 760.106 499.99 760.343 500.087C760.58 500.185 760.835 500.235 761.091 500.234C761.563 500.231 762.016 500.056 762.367 499.741C762.718 499.427 762.942 498.995 762.996 498.527L818.548 498.527L846.305 450.455C846.544 450.556 846.801 450.607 847.06 450.606C847.578 450.606 848.075 450.4 848.442 450.034C848.808 449.668 849.014 449.17 849.014 448.652C849.014 448.134 848.808 447.637 848.442 447.27C848.075 446.904 847.578 446.698 847.06 446.698C846.801 446.697 846.544 446.748 846.305 446.849L818.614 398.896L818.548 398.778L761.235 398.778L733.598 350.917C733.842 350.741 734.041 350.511 734.179 350.243C734.317 349.976 734.39 349.68 734.392 349.38C734.395 348.884 734.209 348.406 733.87 348.044C733.532 347.681 733.068 347.463 732.573 347.432C732.078 347.402 731.591 347.562 731.211 347.881C730.831 348.199 730.587 348.651 730.53 349.143L674.984 349.143L646.328 398.778L591.065 398.778C591.007 398.285 590.762 397.833 590.382 397.515C590.001 397.197 589.514 397.037 589.018 397.067C588.523 397.097 588.059 397.316 587.72 397.678C587.381 398.04 587.193 398.519 587.196 399.015C587.198 399.314 587.271 399.609 587.409 399.875C587.548 400.141 587.747 400.371 587.991 400.545L560.359 448.412L503.335 448.412L474.817 399.015L502.429 351.192C502.671 351.291 502.93 351.342 503.191 351.344C503.662 351.339 504.116 351.163 504.467 350.849C504.819 350.535 505.044 350.104 505.102 349.636L560.635 349.636L588.398 301.558C588.634 301.655 588.886 301.707 589.141 301.709C589.432 301.713 589.721 301.652 589.985 301.53C590.25 301.408 590.484 301.229 590.671 301.005C590.857 300.781 590.991 300.518 591.063 300.236C591.135 299.953 591.144 299.658 591.087 299.372C591.03 299.087 590.911 298.817 590.737 298.583C590.563 298.349 590.339 298.157 590.081 298.021C589.823 297.885 589.539 297.808 589.247 297.796C588.956 297.784 588.666 297.838 588.398 297.952L560.78 250.124L588.398 202.289C588.637 202.392 588.893 202.445 589.153 202.446C589.626 202.441 590.08 202.264 590.432 201.949C590.783 201.634 591.008 201.201 591.065 200.732L646.328 200.732L674.912 250.248L674.984 250.367L732.573 250.367L760.329 202.289C760.568 202.386 760.821 202.439 761.078 202.446C761.552 202.445 762.009 202.269 762.363 201.954C762.716 201.638 762.941 201.203 762.996 200.732L818.541 200.732L847.27 150.979L847.343 150.855L819.566 102.751C819.807 102.577 820.003 102.349 820.14 102.085C820.277 101.822 820.35 101.53 820.355 101.233C820.356 100.977 820.307 100.722 820.21 100.484C820.113 100.247 819.97 100.03 819.79 99.848C819.609 99.6655 819.394 99.5205 819.158 99.4213C818.921 99.322 818.667 99.2704 818.41 99.2694C817.936 99.2685 817.479 99.4421 817.125 99.7572C816.772 100.072 816.546 100.507 816.493 100.977L760.947 100.977L732.29 150.612L677.033 150.612C676.977 150.145 676.753 149.715 676.405 149.4C676.056 149.085 675.605 148.907 675.135 148.897C674.869 148.899 674.606 148.952 674.36 149.055L646.748 101.227L675.339 51.717L675.405 51.5919L647.628 3.49399C647.87 3.31876 648.067 3.08999 648.205 2.82568C648.343 2.56137 648.417 2.26871 648.423 1.97063C648.431 1.47297 648.247 0.991394 647.91 0.625428C647.572 0.259463 647.107 0.0370737 646.611 0.00417967C646.114 -0.0287144 645.624 0.130425 645.241 0.448704C644.859 0.766982 644.613 1.22009 644.555 1.7144L589.009 1.71439L560.287 51.4674L560.215 51.5919L587.991 99.6958C587.751 99.8696 587.555 100.096 587.417 100.358C587.279 100.621 587.204 100.911 587.196 101.207C587.197 101.509 587.269 101.806 587.408 102.075C587.546 102.343 587.746 102.575 587.991 102.751L560.36 150.612L505.102 150.612C505.044 150.119 504.8 149.666 504.418 149.348C504.037 149.03 503.548 148.87 503.053 148.901C502.557 148.932 502.092 149.152 501.754 149.515C501.416 149.879 501.229 150.358 501.234 150.854C501.236 151.154 501.31 151.449 501.448 151.715C501.586 151.98 501.785 152.21 502.029 152.385L474.318 200.364L474.246 200.489L502.029 248.586C501.786 248.763 501.587 248.994 501.449 249.261C501.311 249.528 501.237 249.823 501.234 250.124C501.237 250.422 501.311 250.716 501.449 250.98C501.587 251.245 501.786 251.473 502.029 251.647L474.39 299.508L417.367 299.508L389.735 251.647C389.977 251.473 390.174 251.244 390.311 250.98C390.448 250.715 390.521 250.422 390.523 250.124C390.521 249.824 390.448 249.529 390.311 249.262C390.175 248.995 389.977 248.763 389.735 248.586L417.433 200.608L417.505 200.482L389.735 152.385C389.978 152.21 390.175 151.98 390.312 151.714C390.449 151.448 390.522 151.154 390.523 150.854C390.523 150.335 390.317 149.838 389.95 149.471C389.583 149.104 389.085 148.897 388.566 148.897C388.094 148.902 387.64 149.078 387.289 149.394C386.938 149.71 386.715 150.143 386.661 150.612L331.115 150.612L303.359 198.683C303.12 198.58 302.863 198.526 302.603 198.525C302.346 198.524 302.091 198.575 301.853 198.673C301.614 198.771 301.398 198.915 301.216 199.096C301.033 199.278 300.889 199.494 300.79 199.732C300.691 199.97 300.64 200.225 300.64 200.482C300.64 200.74 300.691 200.995 300.79 201.233C300.889 201.471 301.033 201.687 301.216 201.868C301.398 202.05 301.614 202.194 301.853 202.292C302.091 202.39 302.346 202.44 302.603 202.44C302.863 202.441 303.12 202.39 303.359 202.289L330.978 250.124L302.465 299.508L245.435 299.508L217.798 251.647C218.04 251.473 218.239 251.245 218.377 250.98C218.515 250.716 218.588 250.422 218.592 250.124C218.59 249.82 218.518 249.521 218.381 249.25C218.244 248.978 218.047 248.743 217.804 248.56L244.535 202.262C244.774 202.363 245.032 202.415 245.291 202.413C245.549 202.416 245.805 202.367 246.045 202.27C246.284 202.173 246.501 202.029 246.685 201.847C246.868 201.666 247.013 201.45 247.113 201.211C247.212 200.973 247.263 200.718 247.263 200.46C247.263 200.202 247.212 199.946 247.113 199.708C247.013 199.47 246.868 199.253 246.685 199.072C246.501 198.89 246.284 198.746 246.045 198.649C245.805 198.552 245.549 198.503 245.291 198.506C245.032 198.507 244.775 198.559 244.535 198.656L216.851 150.703L216.773 150.585L159.177 150.585L131.428 198.656C131.186 198.558 130.927 198.507 130.666 198.506C130.194 198.509 129.739 198.685 129.388 199.001C129.037 199.317 128.814 199.75 128.761 200.22L73.5045 200.22L45.866 152.358C46.1098 152.185 46.3085 151.956 46.4456 151.691C46.5827 151.425 46.6543 151.13 46.6543 150.831C46.6543 150.532 46.5827 150.238 46.4456 149.972C46.3085 149.706 46.1098 149.477 45.866 149.304L73.5765 101.312L73.6424 101.194L44.9137 51.4406L44.8478 51.3229L-10.6979 51.3229C-10.755 50.8299 -10.9991 50.3777 -11.3798 50.0594C-11.7605 49.7411 -12.2488 49.5811 -12.744 49.6122C-13.2393 49.6434 -13.7037 49.8633 -14.0415 50.2268C-14.3793 50.5903 -14.5649 51.0695 -14.5598 51.5657C-14.5578 51.8631 -14.4861 52.156 -14.3503 52.4207C-14.2146 52.6854 -14.0187 52.9145 -13.7782 53.0897L-41.4752 101.069L-41.5477 101.194L-12.8912 150.828L-40.5035 198.663C-40.7466 198.56 -41.008 198.506 -41.2722 198.506C-41.7443 198.509 -42.1989 198.685 -42.5498 199.001C-42.9008 199.317 -43.1239 199.75 -43.1769 200.219L-98.716 200.219L-127.438 249.972L-127.517 250.091L-99.7404 298.195C-99.986 298.367 -100.186 298.597 -100.325 298.863C-100.463 299.129 -100.535 299.425 -100.535 299.725C-100.535 300.025 -100.463 300.321 -100.325 300.588C-100.186 300.854 -99.986 301.083 -99.7404 301.256L-127.372 349.117L-182.629 349.117C-182.684 348.647 -182.909 348.214 -183.261 347.899C-183.613 347.583 -184.068 347.407 -184.54 347.402C-184.8 347.401 -185.057 347.452 -185.296 347.554L-212.914 299.726L-185.295 251.897C-185.057 251.998 -184.8 252.05 -184.54 252.048C-184.283 252.049 -184.028 251.999 -183.79 251.901C-183.553 251.803 -183.337 251.659 -183.154 251.478C-182.972 251.296 -182.828 251.081 -182.729 250.843C-182.631 250.606 -182.58 250.351 -182.58 250.094C-182.58 249.837 -182.631 249.582 -182.729 249.345C-182.828 249.107 -182.972 248.892 -183.154 248.71C-183.337 248.529 -183.553 248.385 -183.79 248.287C-184.028 248.189 -184.283 248.139 -184.54 248.14C-184.8 248.135 -185.057 248.187 -185.295 248.291L-212.986 200.338L-213.059 200.219L-268.598 200.219C-268.651 199.75 -268.874 199.317 -269.225 199.001C-269.576 198.685 -270.03 198.509 -270.503 198.506C-271.022 198.506 -271.519 198.712 -271.886 199.079C-272.253 199.446 -272.46 199.944 -272.46 200.463C-272.458 200.762 -272.386 201.057 -272.249 201.322C-272.112 201.588 -271.914 201.818 -271.672 201.993L-299.375 249.973L-299.448 250.091L-270.791 299.726L-298.403 347.56C-298.641 347.456 -298.899 347.404 -299.159 347.409C-299.631 347.41 -300.087 347.584 -300.44 347.899C-300.792 348.214 -301.017 348.647 -301.07 349.117L-356.616 349.117L-384.366 397.188C-384.609 397.087 -384.871 397.036 -385.134 397.037C-385.605 397.042 -386.058 397.218 -386.408 397.532C-386.759 397.846 -386.983 398.277 -387.039 398.745L-442.302 398.745L-469.934 350.89C-469.691 350.716 -469.492 350.486 -469.354 350.22C-469.216 349.954 -469.142 349.659 -469.14 349.36C-469.14 349.103 -469.191 348.849 -469.289 348.612C-469.388 348.375 -469.532 348.16 -469.714 347.978C-469.896 347.797 -470.111 347.654 -470.349 347.556C-470.586 347.458 -470.84 347.408 -471.097 347.409C-471.568 347.411 -472.023 347.586 -472.374 347.901C-472.725 348.216 -472.948 348.648 -473.002 349.117L-528.553 349.117L-556.304 397.188C-556.57 397.076 -556.859 397.025 -557.148 397.038C-557.437 397.05 -557.719 397.127 -557.975 397.262C-558.231 397.398 -558.453 397.588 -558.626 397.819C-558.8 398.051 -558.92 398.318 -558.977 398.602C-559.035 398.885 -559.028 399.178 -558.959 399.459C-558.89 399.74 -558.759 400.002 -558.576 400.226C-558.393 400.45 -558.163 400.631 -557.902 400.755C-557.64 400.88 -557.355 400.945 -557.065 400.945V400.945ZM-471.235 746.174L-526.498 746.174C-526.529 745.875 -526.63 745.588 -526.792 745.336C-526.955 745.083 -527.174 744.873 -527.433 744.721C-527.693 744.569 -527.984 744.481 -528.283 744.463C-528.583 744.445 -528.883 744.498 -529.158 744.617L-556.783 696.789L-528.265 647.397L-473.002 647.397C-472.946 647.864 -472.723 648.295 -472.374 648.61C-472.025 648.925 -471.574 649.103 -471.104 649.111C-470.839 649.113 -470.577 649.059 -470.335 648.954L-452.227 680.323L-442.723 696.789L-471.235 746.174ZM-384.372 694.983C-384.608 694.885 -384.86 694.834 -385.115 694.831C-385.589 694.831 -386.046 695.005 -386.401 695.32C-386.756 695.635 -386.983 696.068 -387.039 696.539L-442.296 696.539L-461.304 663.62L-469.927 648.691C-469.686 648.514 -469.49 648.284 -469.353 648.019C-469.217 647.753 -469.143 647.459 -469.14 647.161C-469.141 646.861 -469.212 646.567 -469.349 646.301C-469.486 646.035 -469.684 645.805 -469.927 645.63L-442.296 597.762L-385.272 597.762L-356.754 647.154L-375.762 680.08L-384.372 694.983ZM-270.791 796.054L-299.303 845.439L-354.567 845.439C-354.621 844.972 -354.843 844.54 -355.192 844.225C-355.542 843.91 -355.994 843.734 -356.465 843.728C-356.726 843.725 -356.986 843.777 -357.227 843.88L-384.846 796.054L-356.334 746.66L-301.07 746.66C-301.017 747.127 -300.794 747.56 -300.445 747.875C-300.095 748.191 -299.643 748.368 -299.172 748.374C-298.908 748.376 -298.646 748.323 -298.403 748.216L-270.791 796.054ZM-298.403 744.617C-298.64 744.521 -298.891 744.467 -299.146 744.459C-299.62 744.462 -300.078 744.638 -300.432 744.953C-300.786 745.269 -301.013 745.703 -301.07 746.174L-356.334 746.174L-383.965 698.319C-383.725 698.143 -383.529 697.914 -383.391 697.649C-383.253 697.385 -383.178 697.093 -383.17 696.795C-383.173 696.495 -383.247 696.199 -383.385 695.932C-383.523 695.665 -383.722 695.434 -383.965 695.258L-365.838 663.863L-356.334 647.397L-301.07 647.397C-301.015 647.867 -300.79 648.3 -300.438 648.615C-300.086 648.931 -299.631 649.107 -299.159 649.111C-298.899 649.114 -298.641 649.06 -298.403 648.954L-280.295 680.323L-270.791 696.789L-298.403 744.617ZM-184.823 647.154L-212.435 694.983C-212.676 694.882 -212.935 694.831 -213.197 694.831C-213.668 694.837 -214.122 695.013 -214.473 695.327C-214.825 695.641 -215.05 696.071 -215.108 696.539L-270.365 696.539L-289.372 663.62L-297.997 648.691C-297.754 648.514 -297.556 648.283 -297.418 648.016C-297.28 647.75 -297.206 647.454 -297.202 647.154C-297.204 646.855 -297.277 646.561 -297.415 646.296C-297.553 646.031 -297.753 645.803 -297.997 645.63L-270.365 597.762L-215.108 597.762C-215.051 598.231 -214.827 598.664 -214.475 598.979C-214.123 599.295 -213.669 599.471 -213.197 599.477C-212.935 599.478 -212.676 599.426 -212.435 599.326L-184.823 647.154ZM-212.435 595.72C-212.676 595.617 -212.935 595.564 -213.197 595.562C-213.669 595.568 -214.123 595.745 -214.475 596.06C-214.827 596.375 -215.052 596.808 -215.108 597.277L-270.365 597.277L-297.997 549.422C-297.751 549.249 -297.551 549.02 -297.412 548.754C-297.274 548.487 -297.202 548.192 -297.202 547.892C-297.202 547.591 -297.274 547.296 -297.412 547.029C-297.551 546.763 -297.751 546.534 -297.997 546.362L-270.365 498.5L-215.108 498.5C-215.052 498.969 -214.828 499.401 -214.476 499.715C-214.124 500.03 -213.669 500.205 -213.197 500.208C-212.935 500.212 -212.675 500.16 -212.435 500.057L-194.327 531.432L-184.823 547.892L-212.435 595.72ZM-184.396 547.642L-203.41 514.717L-212.034 499.788C-211.789 499.615 -211.588 499.386 -211.45 499.119C-211.312 498.853 -211.24 498.557 -211.24 498.257C-211.24 497.957 -211.312 497.661 -211.45 497.395C-211.588 497.129 -211.789 496.899 -212.034 496.727L-184.396 448.872L-129.139 448.872C-129.104 449.169 -129.001 449.454 -128.837 449.705C-128.673 449.956 -128.453 450.165 -128.194 450.316C-127.936 450.467 -127.645 450.556 -127.346 450.575C-127.048 450.595 -126.748 450.545 -126.472 450.429L-98.8538 498.257L-117.868 531.182L-127.372 547.642L-184.396 547.642ZM-126.065 447.092L-99.3335 400.794C-99.0569 400.911 -98.757 400.961 -98.4576 400.941C-98.1582 400.922 -97.8674 400.832 -97.6085 400.681C-97.3496 400.529 -97.1298 400.319 -96.9663 400.067C-96.8028 399.816 -96.7001 399.529 -96.6666 399.231L-41.1275 399.231L-13.3708 351.166C-13.1287 351.264 -12.8704 351.315 -12.6094 351.317C-12.0902 351.317 -11.5923 351.111 -11.2252 350.744C-10.8581 350.377 -10.6519 349.879 -10.6519 349.36C-10.6519 348.841 -10.8581 348.343 -11.2252 347.976C-11.5923 347.609 -12.0902 347.402 -12.6094 347.402C-12.8685 347.404 -13.1248 347.456 -13.3647 347.554L-40.983 299.726L-12.4709 250.34L44.5587 250.34L72.197 298.195C71.9528 298.369 71.753 298.599 71.6138 298.865C71.4747 299.131 71.4001 299.425 71.3961 299.726C71.3962 300.245 71.6025 300.742 71.9695 301.109C72.3365 301.476 72.8342 301.683 73.3532 301.683C73.8251 301.68 74.2798 301.505 74.6317 301.19C74.9836 300.876 75.2087 300.444 75.2646 299.975L130.515 299.975L158.153 347.856C157.913 348.032 157.716 348.261 157.58 348.525C157.443 348.79 157.369 349.082 157.365 349.38C157.364 349.637 157.414 349.892 157.512 350.13C157.611 350.369 157.755 350.585 157.936 350.767C158.118 350.95 158.334 351.095 158.572 351.193C158.809 351.292 159.064 351.343 159.322 351.344C159.793 351.34 160.246 351.164 160.597 350.85C160.947 350.535 161.171 350.104 161.227 349.636L216.49 349.636L244.122 397.484C243.864 397.675 243.658 397.927 243.523 398.217C243.387 398.507 243.325 398.827 243.343 399.147C243.361 399.467 243.459 399.778 243.627 400.051C243.795 400.324 244.028 400.551 244.305 400.711C244.583 400.872 244.896 400.961 245.216 400.971C245.536 400.981 245.854 400.911 246.141 400.767C246.427 400.624 246.674 400.411 246.858 400.149C247.042 399.886 247.158 399.582 247.196 399.264L302.741 399.264L330.498 351.192C330.74 351.291 330.999 351.342 331.26 351.344C331.731 351.339 332.184 351.164 332.535 350.849C332.885 350.535 333.109 350.104 333.165 349.636L388.421 349.636L416.06 397.484C415.819 397.66 415.622 397.891 415.485 398.156C415.349 398.422 415.275 398.716 415.272 399.015C415.272 399.314 415.344 399.608 415.481 399.874C415.618 400.14 415.817 400.37 416.06 400.545L389.328 446.849C389.051 446.733 388.752 446.683 388.452 446.702C388.153 446.722 387.862 446.811 387.603 446.963C387.344 447.115 387.124 447.325 386.961 447.576C386.797 447.828 386.695 448.114 386.661 448.412L331.115 448.412L303.365 496.471C303.125 496.376 302.869 496.327 302.61 496.326C302.092 496.326 301.595 496.532 301.228 496.898C300.862 497.265 300.656 497.762 300.656 498.28C300.656 498.798 300.862 499.296 301.228 499.662C301.595 500.028 302.092 500.234 302.61 500.234C302.867 500.235 303.122 500.183 303.359 500.083L330.977 547.918L302.465 597.303L245.435 597.303L217.797 549.448C218.041 549.273 218.241 549.044 218.38 548.778C218.519 548.512 218.594 548.218 218.598 547.918C218.599 547.661 218.549 547.406 218.45 547.168C218.352 546.931 218.208 546.715 218.026 546.533C217.844 546.351 217.628 546.207 217.391 546.109C217.153 546.011 216.898 545.96 216.641 545.961C216.169 545.962 215.714 546.137 215.361 546.452C215.009 546.766 214.785 547.199 214.73 547.668L159.486 547.668L131.835 499.788C132.078 499.612 132.276 499.383 132.414 499.117C132.552 498.851 132.626 498.557 132.63 498.257C132.634 497.761 132.448 497.282 132.11 496.919C131.772 496.556 131.308 496.336 130.813 496.304C130.318 496.272 129.83 496.431 129.448 496.747C129.067 497.064 128.821 497.515 128.761 498.007L73.5045 498.007L45.866 450.153C46.1089 449.978 46.3073 449.748 46.4453 449.482C46.5833 449.216 46.657 448.922 46.6604 448.622C46.6628 448.127 46.4757 447.649 46.1374 447.288C45.7992 446.926 45.3353 446.707 44.8409 446.676C44.3466 446.645 43.859 446.804 43.4782 447.121C43.0973 447.437 42.852 447.888 42.7924 448.38L-12.7473 448.38L-40.5035 496.451C-40.7795 496.335 -41.0789 496.284 -41.3778 496.304C-41.6767 496.323 -41.967 496.412 -42.2257 496.563C-42.4844 496.714 -42.7045 496.923 -42.8684 497.174C-43.0323 497.424 -43.1356 497.71 -43.1702 498.007L-98.4336 498.007L-126.065 450.153C-125.821 449.979 -125.623 449.75 -125.486 449.483C-125.349 449.217 -125.277 448.922 -125.277 448.623C-125.277 448.323 -125.349 448.028 -125.486 447.762C-125.623 447.496 -125.821 447.266 -126.065 447.092V447.092ZM-13.7785 645.63C-14.0222 645.804 -14.2209 646.033 -14.358 646.298C-14.4951 646.564 -14.5667 646.859 -14.5667 647.157C-14.5667 647.456 -14.4951 647.751 -14.358 648.017C-14.2209 648.282 -14.0222 648.511 -13.7785 648.685L-41.4101 696.539L-96.6669 696.539C-96.7208 696.07 -96.9442 695.637 -97.2949 695.322C-97.6457 695.006 -98.0997 694.829 -98.5715 694.825C-98.8335 694.827 -99.0925 694.88 -99.3336 694.983L-126.946 647.161L-99.3335 599.326C-99.0919 599.426 -98.8329 599.477 -98.5714 599.477C-98.0995 599.472 -97.6455 599.296 -97.2947 598.98C-96.944 598.664 -96.7207 598.231 -96.6668 597.762L-41.41 597.762L-13.7785 645.63ZM-41.4101 597.277L-96.6669 597.277C-96.7208 596.808 -96.9441 596.375 -97.2948 596.059C-97.6456 595.744 -98.0996 595.567 -98.5715 595.562C-98.8334 595.564 -99.0925 595.618 -99.3336 595.72L-126.946 547.892L-107.938 514.966L-98.4336 498.5L-43.1702 498.5C-43.1172 498.968 -42.8939 499.401 -42.5428 499.716C-42.1917 500.031 -41.7371 500.206 -41.2655 500.208C-41.0035 500.213 -40.7437 500.161 -40.5035 500.057L-22.3954 531.432L-12.8913 547.892L-41.4101 597.277ZM-12.471 547.642L-31.4791 514.717L-40.1026 499.788C-39.8572 499.615 -39.657 499.386 -39.5188 499.119C-39.3805 498.853 -39.3084 498.557 -39.3084 498.257C-39.3084 497.957 -39.3805 497.661 -39.5188 497.395C-39.657 497.129 -39.8572 496.899 -40.1026 496.727L-12.471 448.872L42.7924 448.872C42.8502 449.339 43.0758 449.77 43.4272 450.084C43.7786 450.398 44.232 450.574 44.7032 450.579C44.9647 450.58 45.2237 450.529 45.4652 450.429L73.0774 498.257L54.0694 531.182L44.5586 547.642L-12.471 547.642ZM44.9857 547.892L63.9937 514.966L73.5045 498.5L128.761 498.5C128.817 498.969 129.042 499.401 129.394 499.716C129.746 500.03 130.2 500.205 130.673 500.208C130.932 500.212 131.19 500.161 131.428 500.057L159.046 547.892L130.528 597.277L75.2646 597.277C75.2338 596.978 75.133 596.691 74.9705 596.439C74.808 596.186 74.5883 595.976 74.3292 595.824C74.0702 595.673 73.779 595.584 73.4794 595.566C73.1797 595.548 72.8801 595.601 72.6046 595.72L44.9857 547.892ZM158.166 648.711L130.528 696.565L73.5045 696.565L45.8661 648.711C46.1115 648.538 46.3117 648.309 46.45 648.043C46.5882 647.776 46.6604 647.481 46.6604 647.18C46.6604 646.88 46.5882 646.585 46.45 646.318C46.3117 646.052 46.1115 645.823 45.8661 645.65L72.6106 599.326C72.8841 599.441 73.1808 599.492 73.477 599.473C73.7732 599.454 74.061 599.367 74.3177 599.218C74.5744 599.069 74.793 598.862 74.9561 598.614C75.1193 598.366 75.2226 598.083 75.2579 597.789L130.528 597.789L149.535 630.721L158.166 645.65C157.92 645.823 157.72 646.052 157.582 646.318C157.444 646.585 157.371 646.88 157.371 647.18C157.371 647.481 157.444 647.776 157.582 648.043C157.72 648.309 157.92 648.538 158.166 648.711L158.166 648.711ZM161.233 646.937C161.199 646.64 161.095 646.355 160.931 646.104C160.768 645.853 160.547 645.644 160.289 645.493C160.03 645.342 159.74 645.253 159.441 645.234C159.142 645.214 158.843 645.265 158.567 645.381L140.458 614.012L130.955 597.546L159.467 548.161L214.73 548.161C214.786 548.629 215.01 549.062 215.363 549.376C215.715 549.691 216.169 549.866 216.641 549.868C216.899 549.872 217.154 549.821 217.39 549.718L245.009 597.546L226.001 630.471L216.49 646.937L161.233 646.937ZM330.977 746.45L303.359 794.275C303.118 794.171 302.859 794.118 302.597 794.121C302.125 794.124 301.67 794.3 301.319 794.616C300.968 794.932 300.745 795.365 300.693 795.834L245.435 795.834L216.917 746.45L244.535 698.615C244.812 698.731 245.112 698.781 245.411 698.762C245.711 698.742 246.001 698.653 246.26 698.501C246.519 698.349 246.739 698.139 246.902 697.888C247.066 697.636 247.168 697.35 247.202 697.052L302.465 697.052L330.977 746.45ZM330.097 648.711L302.465 696.566L247.202 696.566C247.17 696.267 247.069 695.979 246.906 695.727C246.742 695.475 246.522 695.264 246.262 695.113C246.003 694.961 245.711 694.873 245.411 694.855C245.111 694.837 244.811 694.89 244.535 695.009L216.917 647.187L235.931 614.255L245.435 597.789L302.465 597.789L321.467 630.721L330.097 645.65C329.853 645.824 329.655 646.054 329.517 646.32C329.38 646.586 329.309 646.881 329.309 647.181C329.309 647.48 329.38 647.775 329.517 648.041C329.655 648.307 329.853 648.537 330.097 648.711L330.097 648.711ZM416.939 597.546L388.421 646.938L333.171 646.938C333.116 646.47 332.892 646.038 332.541 645.724C332.191 645.41 331.738 645.234 331.267 645.23C331.003 645.228 330.742 645.28 330.498 645.381L312.39 614.012L302.886 597.546L331.405 548.161L386.661 548.161C386.717 548.629 386.942 549.062 387.294 549.376C387.646 549.691 388.101 549.866 388.573 549.868C388.832 549.872 389.09 549.821 389.328 549.718L416.939 597.546ZM389.328 546.111C389.052 545.995 388.753 545.945 388.454 545.965C388.155 545.984 387.865 546.073 387.606 546.224C387.347 546.375 387.127 546.584 386.963 546.835C386.799 547.086 386.696 547.371 386.661 547.668L331.405 547.668L303.766 499.814C304.009 499.638 304.208 499.409 304.347 499.143C304.486 498.877 304.562 498.583 304.567 498.283C304.563 497.983 304.488 497.688 304.349 497.423C304.21 497.157 304.01 496.927 303.766 496.753L331.405 448.892L386.661 448.892C386.695 449.19 386.797 449.477 386.961 449.728C387.124 449.98 387.344 450.19 387.603 450.342C387.862 450.493 388.153 450.583 388.452 450.602C388.752 450.622 389.051 450.572 389.328 450.455L407.435 481.824L416.939 498.283L389.328 546.111ZM588.871 597.546L561.259 645.374C561.017 645.274 560.759 645.22 560.497 645.217C560.026 645.224 559.572 645.402 559.221 645.717C558.87 646.032 558.644 646.463 558.586 646.931L503.335 646.931L475.704 599.083C475.947 598.909 476.146 598.679 476.283 598.413C476.42 598.147 476.492 597.852 476.492 597.552C476.492 597.253 476.42 596.958 476.283 596.692C476.146 596.425 475.947 596.196 475.704 596.022L503.335 548.161L560.359 548.161L588.871 597.546ZM818.259 399.264L845.891 447.119C845.647 447.292 845.449 447.522 845.312 447.788C845.174 448.054 845.103 448.349 845.103 448.649C845.103 448.948 845.174 449.243 845.312 449.51C845.449 449.776 845.647 450.005 845.891 450.179L818.259 498.04L762.996 498.04C762.943 497.571 762.72 497.138 762.369 496.822C762.018 496.506 761.564 496.329 761.091 496.326C760.833 496.326 760.576 496.375 760.336 496.471L732.717 448.649L751.732 415.723L761.235 399.264L818.259 399.264ZM675.267 349.636L730.53 349.636C730.586 350.103 730.811 350.534 731.161 350.848C731.511 351.162 731.964 351.338 732.435 351.344C732.694 351.342 732.95 351.291 733.19 351.192L760.809 399.015L741.801 431.94L732.297 448.412L677.033 448.412C676.979 447.943 676.755 447.509 676.403 447.193C676.051 446.877 675.595 446.701 675.122 446.698C674.86 446.697 674.601 446.749 674.36 446.849L656.253 415.48L646.749 399.014L675.267 349.636ZM588.398 400.827C588.638 400.923 588.895 400.972 589.153 400.972C589.625 400.968 590.079 400.792 590.431 400.478C590.783 400.164 591.008 399.732 591.065 399.264L646.328 399.264L665.329 432.19L673.96 447.119C673.714 447.291 673.514 447.52 673.375 447.787C673.237 448.053 673.165 448.349 673.165 448.649C673.165 448.949 673.237 449.245 673.375 449.511C673.514 449.778 673.714 450.007 673.96 450.179L646.328 498.041L591.065 498.041C591.01 497.571 590.785 497.138 590.433 496.822C590.081 496.507 589.626 496.33 589.153 496.326C588.895 496.326 588.638 496.375 588.398 496.471L570.29 465.108L560.78 448.649L588.398 400.827ZM560.359 448.892L579.367 481.824L587.991 496.753C587.745 496.926 587.545 497.155 587.407 497.421C587.268 497.688 587.196 497.983 587.196 498.284C587.196 498.584 587.268 498.88 587.407 499.146C587.545 499.412 587.745 499.641 587.991 499.814L560.359 547.668L503.335 547.668L475.704 499.814C475.947 499.64 476.146 499.411 476.283 499.144C476.42 498.878 476.492 498.583 476.492 498.284C476.492 497.984 476.42 497.689 476.283 497.423C476.146 497.157 475.947 496.927 475.704 496.753L493.825 465.358L503.335 448.892L560.359 448.892ZM502.909 448.649L483.894 481.574L475.29 496.471C475.05 496.375 474.793 496.326 474.535 496.326C474.062 496.329 473.608 496.506 473.257 496.822C472.906 497.138 472.683 497.571 472.63 498.04L417.367 498.04L398.359 465.108L389.735 450.179C389.98 450.007 390.181 449.777 390.319 449.511C390.458 449.245 390.53 448.949 390.53 448.649C390.53 448.349 390.458 448.053 390.319 447.786C390.181 447.52 389.98 447.291 389.735 447.118L416.467 400.827C416.709 400.923 416.968 400.972 417.229 400.972C417.7 400.968 418.153 400.792 418.503 400.477C418.854 400.163 419.078 399.732 419.133 399.264L474.39 399.264L502.909 448.649ZM761.229 101.469L816.493 101.469C816.547 101.937 816.77 102.368 817.119 102.684C817.468 102.999 817.92 103.177 818.391 103.184C818.655 103.183 818.917 103.127 819.159 103.02L846.771 150.855L818.259 200.246L762.996 200.246C762.941 199.778 762.719 199.347 762.369 199.032C762.02 198.716 761.568 198.539 761.097 198.532C760.833 198.527 760.571 198.581 760.329 198.689L742.221 167.32L732.717 150.855L761.229 101.469ZM674.36 152.654C674.636 152.774 674.937 152.826 675.237 152.808C675.538 152.79 675.83 152.702 676.09 152.551C676.35 152.399 676.571 152.189 676.734 151.936C676.898 151.684 677.001 151.397 677.033 151.097L732.29 151.097L751.298 184.023L759.922 198.959C759.678 199.132 759.479 199.361 759.342 199.626C759.205 199.892 759.134 200.187 759.134 200.486C759.134 200.785 759.205 201.079 759.342 201.345C759.479 201.611 759.678 201.839 759.922 202.013L732.29 249.88L675.267 249.88L646.748 200.489L665.763 167.564L674.36 152.654ZM560.78 51.5919L589.298 2.20066L644.555 2.20067C644.61 2.66895 644.833 3.10116 645.184 3.41653C645.534 3.73191 645.988 3.90888 646.459 3.91438C646.723 3.91506 646.984 3.86394 647.228 3.76384L674.84 51.592L646.328 100.977L591.065 100.977C591.009 100.511 590.786 100.081 590.437 99.7668C590.087 99.4528 589.636 99.276 589.167 99.2695C588.903 99.2642 588.641 99.3155 588.398 99.4201L560.78 51.5919ZM588.398 103.02C588.633 103.121 588.885 103.177 589.141 103.184C589.615 103.181 590.072 103.006 590.426 102.69C590.781 102.374 591.008 101.94 591.065 101.469L646.328 101.469L673.953 149.324C673.716 149.501 673.521 149.73 673.385 149.992C673.248 150.255 673.173 150.545 673.165 150.841C673.166 151.143 673.239 151.44 673.377 151.708C673.515 151.977 673.715 152.208 673.96 152.385L655.832 183.78L646.328 200.246L591.065 200.246C591.008 199.777 590.783 199.344 590.432 199.029C590.08 198.714 589.626 198.537 589.153 198.532C588.893 198.53 588.636 198.583 588.398 198.689L570.29 167.32L560.78 150.855L588.398 103.02ZM474.817 200.489L502.429 152.654C502.669 152.761 502.929 152.814 503.191 152.812C503.664 152.806 504.118 152.63 504.469 152.314C504.821 151.999 505.046 151.566 505.102 151.097L560.359 151.097L579.367 184.023L587.991 198.958C587.748 199.134 587.549 199.363 587.411 199.629C587.273 199.895 587.2 200.19 587.196 200.489C587.198 200.788 587.271 201.082 587.41 201.347C587.548 201.612 587.747 201.84 587.991 202.013L560.359 249.88L505.102 249.88C505.046 249.412 504.821 248.979 504.469 248.664C504.118 248.348 503.664 248.171 503.191 248.166C502.929 248.164 502.669 248.218 502.429 248.324L474.817 200.489ZM502.429 251.923C502.706 252.043 503.006 252.096 503.306 252.078C503.607 252.06 503.899 251.972 504.159 251.82C504.419 251.669 504.64 251.458 504.804 251.206C504.968 250.953 505.07 250.666 505.102 250.367L560.359 250.367L587.991 298.221C587.746 298.394 587.545 298.623 587.407 298.889C587.268 299.156 587.196 299.451 587.196 299.752C587.196 300.052 587.268 300.347 587.407 300.614C587.545 300.88 587.746 301.109 587.991 301.282L560.359 349.143L505.102 349.143C505.068 348.845 504.965 348.558 504.8 348.307C504.636 348.055 504.416 347.845 504.156 347.693C503.897 347.542 503.606 347.452 503.306 347.433C503.007 347.413 502.706 347.464 502.429 347.58L484.321 316.218L474.817 299.752L502.429 251.923ZM474.39 300.001L493.405 332.92L502.028 347.856C501.783 348.028 501.582 348.258 501.444 348.524C501.306 348.79 501.233 349.086 501.233 349.386C501.233 349.686 501.306 349.982 501.444 350.249C501.582 350.515 501.783 350.744 502.028 350.917L474.39 398.778L419.133 398.778C419.1 398.48 418.997 398.193 418.834 397.942C418.67 397.69 418.45 397.48 418.192 397.328C417.933 397.176 417.642 397.087 417.342 397.068C417.043 397.048 416.743 397.098 416.467 397.215L388.848 349.38L407.856 316.46L417.366 300.001L474.39 300.001ZM303.766 202.013C304.012 201.841 304.212 201.612 304.351 201.346C304.489 201.08 304.561 200.785 304.561 200.486C304.561 200.186 304.489 199.891 304.351 199.625C304.212 199.359 304.012 199.13 303.766 198.958L331.405 151.097L386.661 151.097C386.714 151.567 386.937 152 387.288 152.316C387.639 152.632 388.094 152.809 388.566 152.812C388.828 152.813 389.088 152.76 389.328 152.654L416.94 200.483L389.328 248.324C389.088 248.219 388.828 248.165 388.566 248.166C388.094 248.17 387.64 248.347 387.289 248.663C386.938 248.979 386.715 249.412 386.661 249.881L331.405 249.881L303.766 202.013ZM331.405 250.367L386.661 250.367C386.715 250.836 386.938 251.269 387.289 251.584C387.64 251.9 388.094 252.077 388.566 252.081C388.828 252.08 389.087 252.026 389.328 251.923L416.94 299.752L397.938 332.677L388.421 349.143L333.165 349.143C333.131 348.845 333.029 348.559 332.865 348.307C332.702 348.055 332.482 347.845 332.223 347.694C331.964 347.542 331.673 347.453 331.374 347.433C331.074 347.413 330.774 347.464 330.498 347.58L312.39 316.218L302.886 299.752L331.405 250.367ZM302.465 300.001L321.467 332.92L330.097 347.856C329.852 348.028 329.651 348.258 329.513 348.524C329.375 348.79 329.303 349.086 329.303 349.386C329.303 349.686 329.375 349.982 329.513 350.248C329.651 350.515 329.852 350.744 330.097 350.917L302.465 398.778L247.196 398.778C247.143 398.308 246.92 397.875 246.569 397.559C246.218 397.243 245.764 397.067 245.291 397.063C245.032 397.062 244.774 397.113 244.535 397.215L216.917 349.38L235.931 316.46L245.435 300.001L302.465 300.001ZM245.009 299.752L226.001 332.677L216.49 349.143L161.227 349.143C161.173 348.674 160.949 348.241 160.599 347.925C160.248 347.61 159.794 347.433 159.322 347.429C159.062 347.427 158.805 347.479 158.567 347.58L130.948 299.752L159.466 250.367L214.723 250.367C214.778 250.835 215.002 251.267 215.353 251.583C215.703 251.898 216.156 252.075 216.628 252.081C216.89 252.081 217.149 252.027 217.39 251.923L245.009 299.752ZM131.828 198.932L159.467 151.078L216.497 151.078L244.122 198.932C243.881 199.107 243.684 199.337 243.547 199.601C243.411 199.866 243.337 200.158 243.333 200.456C243.337 200.756 243.41 201.051 243.547 201.317C243.684 201.584 243.881 201.815 244.122 201.993L217.377 248.317C217.141 248.216 216.885 248.164 216.628 248.166C216.162 248.169 215.714 248.342 215.366 248.651C215.018 248.96 214.794 249.385 214.737 249.847L159.466 249.847L140.458 216.922L131.828 201.993C132.072 201.818 132.272 201.587 132.41 201.32C132.548 201.053 132.621 200.757 132.623 200.456C132.621 200.157 132.548 199.863 132.409 199.598C132.271 199.333 132.072 199.105 131.828 198.932V198.932ZM128.761 200.706C128.796 201.003 128.899 201.289 129.063 201.539C129.227 201.79 129.447 201.999 129.706 202.15C129.964 202.301 130.255 202.39 130.554 202.409C130.853 202.429 131.152 202.378 131.428 202.262L149.535 233.631L159.046 250.091L130.521 299.482L75.2646 299.482C75.2088 299.014 74.9838 298.581 74.6318 298.267C74.2799 297.953 73.8251 297.777 73.3532 297.775C73.0957 297.771 72.8404 297.822 72.6046 297.926L44.9857 250.091L63.9938 217.172L73.5045 200.706L128.761 200.706ZM-40.983 101.194L-13.3648 53.3654C-13.0889 53.4846 -12.7888 53.5374 -12.4888 53.5193C-12.1888 53.5012 -11.8972 53.4128 -11.6377 53.2613C-11.3781 53.1097 -11.1578 52.8993 -10.9946 52.6469C-10.8314 52.3945 -10.7298 52.1073 -10.698 51.8084L44.5587 51.8084L73.0775 101.194L45.4653 149.028C45.2223 148.925 44.9612 148.872 44.6972 148.871C44.2253 148.875 43.7712 149.052 43.4204 149.368C43.0696 149.684 42.8463 150.117 42.7925 150.585L-12.4709 150.585L-40.983 101.194ZM-40.1026 198.932L-12.4709 151.078L42.7925 151.078C42.8474 151.546 43.0711 151.979 43.4217 152.294C43.7722 152.61 44.2256 152.787 44.6972 152.792C44.9609 152.788 45.2215 152.734 45.4653 152.634L73.0775 200.456L54.0694 233.388L44.5587 249.847L-12.4709 249.847L-31.4789 216.922L-40.1026 201.986C-39.859 201.813 -39.6604 201.584 -39.5234 201.318C-39.3864 201.053 -39.315 200.758 -39.315 200.459C-39.315 200.16 -39.3864 199.866 -39.5234 199.6C-39.6604 199.335 -39.859 199.106 -40.1026 198.932L-40.1026 198.932ZM-126.946 250.091L-98.4335 200.706L-43.1768 200.706C-43.1225 201.174 -42.8988 201.606 -42.548 201.92C-42.1971 202.235 -41.7433 202.41 -41.2721 202.413C-41.0083 202.415 -40.7469 202.363 -40.5033 202.262L-22.3952 233.631L-12.8911 250.091L-41.41 299.482L-96.6666 299.482C-96.7233 299.014 -96.9487 298.582 -97.3005 298.268C-97.6522 297.954 -98.1065 297.778 -98.5782 297.775C-98.8378 297.771 -99.0953 297.822 -99.3334 297.926L-126.946 250.091ZM-99.3334 301.531C-99.0934 301.629 -98.8372 301.68 -98.5782 301.683C-98.1065 301.679 -97.6524 301.503 -97.3007 301.189C-96.9489 300.875 -96.7235 300.443 -96.6666 299.975L-41.41 299.975L-13.7784 347.823C-14.0192 348.001 -14.216 348.233 -14.3537 348.499C-14.4913 348.766 -14.5663 349.06 -14.5727 349.36C-14.5685 349.659 -14.4945 349.953 -14.3567 350.219C-14.2188 350.485 -14.0208 350.715 -13.7784 350.89L-41.4101 398.745L-96.6669 398.745C-96.7014 398.447 -96.8047 398.162 -96.9686 397.911C-97.1325 397.66 -97.3526 397.451 -97.6113 397.3C-97.87 397.149 -98.1603 397.061 -98.4592 397.041C-98.7582 397.022 -99.0575 397.072 -99.3336 397.188L-117.442 365.819L-126.946 349.359L-99.3334 301.531ZM-184.54 351.317C-184.068 351.312 -183.613 351.135 -183.262 350.82C-182.91 350.504 -182.685 350.072 -182.629 349.603L-127.372 349.603L-108.365 382.528L-99.7403 397.457C-99.9859 397.631 -100.186 397.861 -100.325 398.127C-100.463 398.394 -100.535 398.691 -100.535 398.991C-100.535 399.292 -100.463 399.588 -100.325 399.855C-100.186 400.122 -99.9859 400.352 -99.7403 400.525L-126.472 446.816C-126.715 446.72 -126.973 446.671 -127.234 446.672C-127.705 446.677 -128.157 446.853 -128.508 447.167C-128.858 447.481 -129.083 447.912 -129.139 448.379L-184.396 448.379L-212.914 398.988L-193.906 366.069L-185.295 351.166C-185.056 351.264 -184.799 351.316 -184.54 351.317V351.317ZM-298.876 250.091L-271.265 202.262C-270.989 202.381 -270.69 202.434 -270.39 202.417C-270.091 202.399 -269.8 202.311 -269.54 202.161C-269.281 202.01 -269.06 201.8 -268.896 201.549C-268.733 201.297 -268.631 201.011 -268.598 200.712L-213.341 200.712L-185.703 248.56C-185.948 248.733 -186.149 248.962 -186.287 249.228C-186.425 249.495 -186.497 249.79 -186.497 250.09C-186.497 250.391 -186.425 250.686 -186.287 250.953C-186.149 251.219 -185.948 251.448 -185.703 251.621L-213.341 299.482L-270.365 299.482L-298.876 250.091ZM-297.997 347.83L-270.365 299.975L-213.341 299.975L-185.703 347.823C-185.945 348 -186.143 348.231 -186.281 348.498C-186.419 348.764 -186.493 349.059 -186.497 349.36C-186.495 349.659 -186.421 349.954 -186.283 350.22C-186.145 350.486 -185.946 350.716 -185.703 350.89L-203.831 382.279L-213.341 398.745L-270.365 398.745L-289.372 365.819L-297.997 350.89C-297.751 350.718 -297.551 350.489 -297.412 350.222C-297.274 349.956 -297.202 349.66 -297.202 349.36C-297.202 349.06 -297.274 348.764 -297.412 348.498C-297.551 348.231 -297.751 348.002 -297.997 347.829L-297.997 347.83ZM-383.965 397.457L-356.334 349.603L-301.07 349.603C-301.015 350.073 -300.79 350.506 -300.438 350.821C-300.086 351.137 -299.631 351.313 -299.159 351.317C-298.9 351.316 -298.643 351.264 -298.403 351.166L-280.295 382.529L-270.791 398.988L-298.403 446.823C-298.642 446.722 -298.899 446.67 -299.159 446.672C-299.631 446.674 -300.086 446.848 -300.439 447.163C-300.791 447.478 -301.016 447.91 -301.07 448.379L-356.334 448.379L-375.342 415.454L-383.965 400.525C-383.72 400.352 -383.519 400.122 -383.381 399.855C-383.243 399.588 -383.17 399.292 -383.17 398.991C-383.17 398.691 -383.243 398.394 -383.381 398.127C-383.519 397.861 -383.72 397.631 -383.965 397.457L-383.965 397.457ZM-387.039 399.238C-386.984 399.705 -386.76 400.137 -386.409 400.451C-386.058 400.766 -385.605 400.941 -385.134 400.945C-384.871 400.947 -384.609 400.895 -384.366 400.794L-366.258 432.163L-356.754 448.622L-385.272 498.007L-440.535 498.007C-440.591 497.54 -440.815 497.108 -441.166 496.794C-441.516 496.48 -441.969 496.304 -442.44 496.3C-442.7 496.298 -442.957 496.35 -443.195 496.451L-470.814 448.622L-451.806 415.703L-442.302 399.238L-387.039 399.238ZM-555.903 397.457L-528.272 349.603L-473.002 349.603C-472.948 350.072 -472.724 350.505 -472.373 350.82C-472.023 351.136 -471.569 351.313 -471.097 351.317C-470.836 351.315 -470.577 351.264 -470.335 351.166L-442.729 398.988L-461.737 431.914L-471.242 448.379L-528.272 448.379L-555.903 400.525C-555.659 400.35 -555.46 400.12 -555.323 399.853C-555.187 399.587 -555.115 399.291 -555.115 398.991C-555.115 398.691 -555.187 398.396 -555.323 398.129C-555.46 397.862 -555.659 397.632 -555.903 397.457L-555.903 397.457Z" fill="#071221"/>
</g>
</svg>
