<svg width="34" height="40" viewBox="0 0 34 40" fill="none" xmlns="http://www.w3.org/2000/svg">
<g id="ico pin">
<path id="Vector" d="M32 16.6667C32 28.3334 17 38.3334 17 38.3334C17 38.3334 2 28.3334 2 16.6667C2 12.6885 3.58035 8.87319 6.3934 6.06015C9.20644 3.2471 13.0218 1.66675 17 1.66675C20.9782 1.66675 24.7936 3.2471 27.6066 6.06015C30.4196 8.87319 32 12.6885 32 16.6667Z" stroke="#071221" stroke-width="2.5" stroke-linecap="round" stroke-linejoin="round"/>
<path id="Vector_2" d="M17 21.6667C19.7614 21.6667 22 19.4282 22 16.6667C22 13.9053 19.7614 11.6667 17 11.6667C14.2386 11.6667 12 13.9053 12 16.6667C12 19.4282 14.2386 21.6667 17 21.6667Z" stroke="#071221" stroke-width="2.5" stroke-linecap="round" stroke-linejoin="round"/>
</g>
</svg>
