<svg width="131" height="158" viewBox="0 0 131 158" fill="none" xmlns="http://www.w3.org/2000/svg">
<path d="M66.249 0.39859V91.8093L75.6389 61.6501L68.7527 1.06939L66.249 0.39859Z" fill="#D0D2D3"/>
<path opacity="0.3" d="M66.249 0.39859V91.8093L68.7644 83.7316L68.7527 1.06939L66.249 0.39859Z" fill="white"/>
<path d="M68.7527 1.06939L66.249 0.39859V4.87329L69.335 5.70027L68.7527 1.06939Z" fill="#FFD420"/>
<path d="M69.8019 10.3L66.249 9.34802V13.8227L70.3266 14.9154L69.8019 10.3Z" fill="#FFD420"/>
<path d="M2.0213 120.305L66.2483 91.8093L38.5952 90.7144L0.769531 117.297L2.0213 120.305Z" fill="#D0D2D3"/>
<path opacity="0.3" d="M2.0213 120.305L66.2483 91.8093L58.8416 91.5157L0.769531 117.297L2.0213 120.305Z" fill="white"/>
<path d="M0.769531 117.297L2.0213 120.305L5.16542 118.91L3.62244 115.203L0.769531 117.297Z" fill="#FFD420"/>
<path d="M6.53418 113.247L8.31057 117.515L11.4547 116.12L9.41583 111.222L6.53418 113.247Z" fill="#FFD420"/>
<path d="M130.476 154.724L66.249 91.8093L84.5126 123.064L129.224 157.061L130.476 154.724Z" fill="#D0D2D3"/>
<path opacity="0.3" d="M130.476 154.724L66.249 91.8093L71.1406 100.181L129.224 157.061L130.476 154.724Z" fill="white"/>
<path d="M129.224 157.061L130.476 154.724L127.332 151.645L125.789 154.525L129.224 157.061Z" fill="#FFD420"/>
<path d="M122.412 151.881L124.188 148.565L121.044 145.485L119.005 149.291L122.412 151.881Z" fill="#FFD420"/>
<path d="M71.3014 90.6009C70.379 87.1584 67.5885 84.9151 65.0686 85.5903C64.2576 85.8181 63.5461 86.3106 63.0474 86.9895L63.0472 86.9891L63.0397 86.9997C62.9754 87.0843 62.9136 87.1715 62.8542 87.2617L59.7454 91.6526C59.5424 91.9393 59.4041 92.2667 59.34 92.6121C59.2759 92.9575 59.2876 93.3127 59.3743 93.6532C59.461 93.9937 59.6206 94.3112 59.842 94.5839C60.0635 94.8567 60.3415 95.078 60.6569 95.2328L65.23 97.4763C66.2304 98.1042 67.3436 98.342 68.409 98.0565C70.9288 97.3814 72.2238 94.0434 71.3014 90.6009Z" fill="#D0D2D3"/>
<path opacity="0.3" d="M60.2886 91.69L63.6315 87.2694C63.8789 86.94 64.2048 86.6778 64.5795 86.5065C65.236 86.2096 65.7424 86.1793 66.0769 86.4547C66.1699 86.5386 66.2425 86.6425 66.2892 86.7587C66.3358 86.8749 66.3553 87.0003 66.346 87.1252C66.3368 87.25 66.2992 87.3711 66.236 87.4792C66.1728 87.5873 66.0857 87.6796 65.9814 87.7488L60.2886 91.69Z" fill="white"/>
<path opacity="0.2" d="M60.9199 94.6588L66.1601 97.1224C66.553 97.3084 66.9895 97.3829 67.4219 97.3378C67.8543 97.2927 68.2661 97.1298 68.6122 96.8668C69.3371 96.3119 69.9363 95.4743 70.1502 94.7263C70.1804 94.618 70.1838 94.504 70.1601 94.3941C70.1363 94.2843 70.0862 94.1818 70.0139 94.0957C69.9417 94.0095 69.8495 93.9423 69.7455 93.8998C69.6414 93.8572 69.5285 93.8407 69.4167 93.8516L60.9199 94.6588Z" fill="#242B52"/>
</svg>
