<svg width="108" height="99" viewBox="0 0 108 99" fill="none" xmlns="http://www.w3.org/2000/svg">
<path d="M0.695312 65.0268V68.2631L5.44603 71.0051L6.48226 63.4805L0.695312 65.0268Z" fill="#D3CAC2"/>
<path d="M107.219 65.0277V68.2639L101.034 65.8089L102.086 62.0625L107.219 65.0277Z" fill="#D3CAC2"/>
<path d="M107.22 68.2639L53.9576 99L0.695312 68.2639L53.9576 37.5117L107.22 68.2639Z" fill="#BFB5AC"/>
<path d="M30.6503 82.3085V85.5447L0.695312 68.2636V65.0273L30.6503 82.3085Z" fill="#8BB8E8"/>
<path d="M39.0845 87.1875V90.4237L42.6874 92.4962V89.26L39.0845 87.1875Z" fill="#EAEAEA"/>
<path d="M46.9102 91.667V94.9351L53.9565 99.0003L84.2782 81.496V78.2598L53.9565 95.7641L46.9102 91.667Z" fill="#EDD8BC"/>
<path d="M91.0386 74.354V77.5903L94.6733 75.5019V72.2656L91.0386 74.354Z" fill="#EAEAEA"/>
<path d="M98.8835 69.8418V73.0621L107.221 68.2636V65.0273L98.8835 69.8418Z" fill="#3C4870"/>
<path d="M107.22 65.0275L53.9576 95.7637L0.695312 65.0275L53.9576 34.2754L107.22 65.0275Z" fill="#D3CAC2"/>
<path d="M0.695312 65.0275L30.6503 82.3246C30.6503 82.3246 48.8083 77.2391 41.7938 62.8116C36.5329 52.0029 43.946 42.5493 60.8923 38.2768L53.9576 34.2754L0.695312 65.0275Z" fill="#A3CCFF"/>
<path d="M67.1246 73.1416L84.2782 78.259L53.9565 95.7633L46.9102 91.6662L67.1246 73.1416Z" fill="#FFE9C7"/>
<path d="M67.6366 42.2939C64.7511 43.4577 59.6018 47.3794 57.354 51.7316C54.5163 57.2157 59.1714 62.636 61.1642 64.5968L39.0845 87.1866L42.6874 89.2591L64.9743 66.462L91.0554 74.3533L94.6902 72.2649L65.7236 63.4968C64.4323 62.2852 59.5859 57.3113 62.0569 52.5447C64.0975 48.591 69.6612 44.9084 71.1757 44.3345L67.6366 42.2939Z" fill="white"/>
<path d="M77.9027 48.0967C77.9027 48.0967 59.8404 55.5735 79.7042 63.1778C92.0592 67.9126 98.8824 69.8256 98.8824 69.8256L107.22 65.0111L77.9027 48.0967Z" fill="#4E587C"/>
<path d="M64.9737 66.4626L59.3621 72.2017C63.1723 71.8191 66.8071 70.7988 69.7563 69.093C70.2027 68.838 70.6332 68.5669 71.0158 68.2959L64.9737 66.4626ZM63.1404 50.8394C62.71 51.3974 62.3433 51.9713 62.0404 52.5452C59.5853 57.3119 64.4158 62.2858 65.7071 63.4974L73.6143 65.8887C74.794 64.422 75.3839 62.8278 75.3839 61.2336C70.5694 58.6032 69.8042 56.0525 70.681 53.9162C70.3781 53.709 70.0592 53.5177 69.7245 53.3264C67.7955 52.2104 65.5477 51.3815 63.1404 50.8394ZM56.094 50.0742C51.152 50.0742 46.21 51.1583 42.4477 53.3423C41.6027 53.8365 40.8375 54.3626 40.1839 54.9046C39.9288 57.4075 40.4549 60.0699 41.7941 62.8119C43.0375 65.3626 43.4839 67.6264 43.3883 69.6032C46.3694 71.1177 49.9564 71.9945 53.6708 72.2655L61.1636 64.5974C59.1708 62.6365 54.5158 57.2162 57.3535 51.7322C57.6404 51.1902 57.9593 50.6641 58.31 50.138C57.5766 50.0902 56.8433 50.0742 56.094 50.0742Z" fill="#B4ACA5"/>
<path d="M40.1834 54.9043C35.0022 59.2405 35.7515 65.2347 42.4471 69.0927C42.75 69.268 43.0689 69.4434 43.3877 69.6028C43.4834 67.6101 43.0211 65.3623 41.7935 62.8115C40.4544 60.0695 39.9283 57.4072 40.1834 54.9043Z" fill="#8BAED9"/>
<path d="M58.3105 50.1377C57.9438 50.6638 57.625 51.1899 57.354 51.7319C54.5163 57.2159 59.1714 62.6362 61.1641 64.5971L53.6714 72.2652C54.4844 72.329 55.2815 72.3609 56.0946 72.3609C57.1946 72.3609 58.2786 72.313 59.3627 72.2014L64.9743 66.4623L71.0163 68.2956C72.0844 67.5464 72.9453 66.7333 73.6308 65.8884L65.7235 63.4971C64.4322 62.2855 59.5859 57.3116 62.0569 52.5449C62.3598 51.971 62.7264 51.3971 63.1569 50.8391C61.5786 50.4725 59.9525 50.2493 58.3105 50.1377Z" fill="#D9D9D9"/>
<path d="M70.7132 53.9316C69.8205 56.0679 70.5857 58.6027 75.4161 61.249C75.4161 58.6345 73.8379 56.02 70.7132 53.9316Z" fill="#56659B"/>
<path d="M58.1346 0C45.6201 0 35.481 10.1391 35.481 22.6536C35.481 41.5449 58.1346 56.6579 58.1346 56.6579C58.1346 56.6579 80.7882 41.5449 80.7882 22.6536C80.7882 10.1391 70.649 0 58.1346 0ZM58.1346 31.2304C52.5389 31.2304 48.0114 26.6869 48.0114 21.1072C48.0114 15.5116 52.5389 10.984 58.1346 10.984C63.7302 10.984 68.2577 15.5275 68.2577 21.1072C68.2737 26.6869 63.7302 31.2304 58.1346 31.2304Z" fill="#071221"/>
<path d="M56.2859 2.05664C43.7714 2.05664 33.6323 12.1958 33.6323 24.7102C33.6323 43.6015 56.2859 58.7145 56.2859 58.7145C56.2859 58.7145 78.9395 43.5856 78.9395 24.7102C78.9395 12.1958 68.8004 2.05664 56.2859 2.05664ZM56.2859 33.2711C50.6903 33.2711 46.1627 28.7436 46.1627 23.1479C46.1627 17.5523 50.7062 13.0247 56.2859 13.0247C61.8816 13.0247 66.4091 17.5523 66.4091 23.1479C66.425 28.7436 61.8816 33.2711 56.2859 33.2711Z" fill="#4E587C"/>
</svg>
