<svg width="78" height="95" viewBox="0 0 78 95" fill="none" xmlns="http://www.w3.org/2000/svg">
<path fill-rule="evenodd" clip-rule="evenodd" d="M63.5486 14.9665C63.5486 9.60424 60.0498 6.98016 55.7904 9.14788L17.494 28.2771C13.1966 30.4068 9.73584 36.5296 9.73584 41.8919V87.5282C9.73584 92.8904 13.2346 95.5145 17.494 93.3468L55.7524 74.2176C60.0498 72.0879 63.5106 65.965 63.5106 60.6028V14.9665H63.5486Z" fill="#4E587C"/>
<path fill-rule="evenodd" clip-rule="evenodd" d="M12.2838 93.4612L2.92833 88.7835C1.14091 87.9088 0 85.741 0 82.6606V37.0243C0 31.6621 3.49878 25.5772 7.75817 23.4095L46.0546 4.28029C47.8801 3.36756 49.5914 3.32953 50.9225 3.97605L60.7723 8.88195C59.4412 8.15937 57.6919 8.15937 55.7903 9.11013L17.4939 28.2774C13.1965 30.4071 9.73574 36.5299 9.73574 41.8922V87.5285C9.73574 90.3807 10.7245 92.4724 12.2838 93.4612Z" fill="#071221"/>
<path fill-rule="evenodd" clip-rule="evenodd" d="M58.7194 8.38721C61.5336 8.42524 63.5492 10.8972 63.5492 14.9664V15.727L35.9773 68.8172L17.4946 51.7417L23.3513 40.4847L36.0153 52.16L58.7194 8.38721Z" fill="#646E8E"/>
<path fill-rule="evenodd" clip-rule="evenodd" d="M31.8697 44.7824L26.4314 42.0442L20.6128 53.3011L26.0511 56.0393L31.8697 44.7824Z" fill="#D8E4EB"/>
<path fill-rule="evenodd" clip-rule="evenodd" d="M39.0955 70.3386L20.6128 53.301L26.0511 56.0392L44.5338 73.0767L39.0955 70.3386Z" fill="#7A92A3"/>
<path fill-rule="evenodd" clip-rule="evenodd" d="M66.7044 0.477051L72.1427 3.21523L44.5328 56.4195L39.8931 52.1601L66.7044 0.477051Z" fill="#D8E4EB"/>
<path fill-rule="evenodd" clip-rule="evenodd" d="M44.5335 56.4196L72.1434 3.21533L78.0001 8.57759L44.5335 73.0769L26.0508 56.0393L31.8694 44.7824L44.5335 56.4196Z" fill="#F7FCFF"/>
</svg>
