<svg width="96" height="104" viewBox="0 0 96 104" fill="none" xmlns="http://www.w3.org/2000/svg">
<path d="M94.2121 71.6701C95.898 72.4869 95.898 73.9162 94.2121 74.733L38.9123 102.639C37.2264 103.455 34.5288 103.455 32.8429 102.639L1.28157 86.644C-0.404402 85.8272 -0.404402 84.3979 1.28157 83.5811L56.5813 55.6754C58.2672 54.8586 60.9648 54.8586 62.6508 55.6754L94.2121 71.6701Z" fill="#071221"/>
<path d="M95.4932 70.7173V73.1675H93.8747L93.0654 71.9424L95.4932 70.7173Z" fill="#071221"/>
<path d="M0 82.6963V85.0785L1.82084 85.7591L2.0906 84.1937L0 82.6963Z" fill="#071221"/>
<path d="M94.2121 72.2146L38.9124 100.12C37.2264 100.937 34.5288 100.937 32.8429 100.12L1.28157 84.1937C-0.404402 83.3769 -0.404402 81.9476 1.28157 81.1309L56.5813 53.2251C58.2673 52.4084 60.9648 52.4084 62.6508 53.2251L94.2795 69.1518C95.8981 70.0366 95.8981 71.3979 94.2121 72.2146Z" fill="white"/>
<path d="M33.7192 96.8534L5.52979 82.6283L59.5482 55.4031L87.7375 69.6283L33.7192 96.8534Z" fill="#4E587C"/>
<path d="M31.7636 67.5183C31.1567 67.2461 30.2126 67.2461 29.6056 67.5183C28.9987 67.7906 28.9987 68.3351 29.6056 68.6073C30.2126 68.8796 31.1567 68.8796 31.7636 68.6073C32.3706 68.3351 32.3706 67.8586 31.7636 67.5183Z" fill="#AFB2F2"/>
<path d="M36.754 65.3403C37.1264 65.3403 37.4284 65.1879 37.4284 65C37.4284 64.812 37.1264 64.6597 36.754 64.6597C36.3815 64.6597 36.0796 64.812 36.0796 65C36.0796 65.1879 36.3815 65.3403 36.754 65.3403Z" fill="#AFB2F2"/>
<path d="M39.0468 63.8429C38.7771 63.7068 38.3725 63.7068 38.1027 63.8429C37.833 63.9791 37.833 64.1832 38.1027 64.3194C38.3725 64.4555 38.7771 64.4555 39.0468 64.3194C39.3166 64.1832 39.3166 63.9791 39.0468 63.8429Z" fill="#AFB2F2"/>
<path d="M40.9355 62.89C40.6658 62.7539 40.2611 62.7539 39.9914 62.89C39.7216 63.0262 39.7216 63.2303 39.9914 63.3665C40.2611 63.5026 40.6658 63.5026 40.9355 63.3665C41.1378 63.2984 41.1378 63.0262 40.9355 62.89Z" fill="#AFB2F2"/>
<path d="M65.3482 85.555C64.3366 86.0995 62.6506 86.0995 61.6391 85.555C60.6275 85.0105 60.6275 84.1937 61.6391 83.7173C62.6506 83.1728 64.3366 83.1728 65.3482 83.7173C66.3598 84.1937 66.3598 85.0785 65.3482 85.555ZM61.9088 83.8534C61.0321 84.2618 61.0321 85.0105 61.9088 85.4188C62.7855 85.8272 64.1343 85.8272 65.011 85.4188C65.8877 85.0105 65.8877 84.2618 65.011 83.8534C64.1343 83.445 62.7855 83.445 61.9088 83.8534Z" fill="#AFB2F2"/>
<path d="M49.7025 96.6492L47.0724 98.0104C47.005 98.0785 46.8701 98.0104 46.8701 97.9424V96.9214C46.8701 96.8534 46.9376 96.7172 47.0724 96.6492L49.7025 95.2879C49.77 95.2199 49.9049 95.2879 49.9049 95.356V96.3769C49.9049 96.5131 49.77 96.6492 49.7025 96.6492Z" fill="#7A83D6"/>
<path d="M52.7373 94.4712C52.7373 94.1309 52.4676 93.9947 52.1304 94.1989C51.7932 94.3351 51.5234 94.7434 51.5234 95.0837C51.5234 95.4241 51.7932 95.5602 52.1304 95.356C52.4676 95.2199 52.7373 94.8115 52.7373 94.4712Z" fill="#7A83D6"/>
<path d="M13.6902 92.2932L6.87892 88.822C6.54173 88.6858 6.27197 88.2775 6.27197 87.9372C6.27197 87.5968 6.54173 87.4607 6.87892 87.6649L13.6902 91.1361C14.0274 91.2722 14.2972 91.6806 14.2972 92.0209C14.2972 92.3612 14.0274 92.4974 13.6902 92.2932Z" fill="#CEC8D7"/>
<path d="M71.9567 71.8063L62.313 76.7068V10.2775L71.9567 5.44504V71.8063Z" fill="#485EAB"/>
<path d="M62.3132 76.7068L52.6021 71.8063V5.44504L62.3132 10.2775V76.7068Z" fill="#283666"/>
<path d="M52.6021 5.44503L62.3132 10.2775L71.957 5.44503L62.3132 0L52.6021 5.44503Z" fill="#5A74D1"/>
<path d="M56.5134 79.157L46.8696 84.0576V28.7905L56.5134 23.89V79.157Z" fill="#F2DC67"/>
<path d="M46.8699 84.0576L37.1587 79.157V23.89L46.8699 28.7905V84.0576Z" fill="#CFB249"/>
<path d="M37.1587 23.89L46.8699 28.7905L56.5136 23.89L46.8699 18.5131L37.1587 23.89Z" fill="#FFF385"/>
<path d="M41.8791 87.1204L32.2354 92.0209V53.4293L41.8791 48.5288V87.1204Z" fill="#213C60"/>
<path d="M32.2356 92.0209L22.5244 87.1204V48.5288L32.2356 53.4293V92.0209Z" fill="#071221"/>
<path d="M22.5244 48.5288L32.2356 53.4293L41.8793 48.5288L32.2356 43.0837L22.5244 48.5288Z" fill="#2F5486"/>
</svg>
